<?xml version="1.0" encoding="UTF-8"?>
<svg xmlns="http://www.w3.org/2000/svg" xmlns:xlink="http://www.w3.org/1999/xlink" width="381.838mm" height="56.570mm" viewBox="-663.168823 81.765625 381.837830 56.569580">
    <circle transform="matrix(-0.707107,0.707107,0.707107,0.707107,-310.653992,94.462372)" style="stroke:#000000;stroke-width:0.05mm;fill:none" r="3.5" cx="0" cy="0"/>
    <path transform="matrix(-0.707107,0.707107,0.707107,0.707107,48.537258,-424.878693)" style="stroke:#000000;stroke-width:0.05mm;fill:none" d="M631.504028,125L651.504028,125L651.504028,145L611.504028,145L611.504028,105L631.504028,105L631.504028,125z"/>
    <path transform="matrix(-0.707107,0.707107,0.707107,0.707107,-262.589294,-424.87854)" style="stroke:#000000;stroke-width:0.05mm;fill:none" d="M631.504028,114C631.504028,120.075127,636.428894,125,642.504028,125L651.504028,125L651.504028,145L622.504028,145C616.428894,145,611.504028,140.075134,611.504028,134L611.504028,105L631.504028,105L631.504028,114z"/>
    <circle transform="matrix(-0.707107,0.707107,0.707107,0.707107,-621.780151,94.462952)" style="stroke:#000000;stroke-width:0.05mm;fill:none" r="3.5" cx="0" cy="0"/>
    <circle transform="matrix(-0.707107,0.707107,0.707107,0.707107,-338.937836,94.462738)" style="stroke:#000000;stroke-width:0.05mm;fill:none" r="3.5" cx="0" cy="0"/>
    <path transform="matrix(-0.707107,0.707107,0.707107,0.707107,20.253067,-424.878448)" style="stroke:#000000;stroke-width:0.05mm;fill:none" d="M631.504028,124C631.504028,124.552277,631.951721,125,632.504028,125L651.504028,125L651.504028,145L612.504028,145C611.951721,145,611.504028,144.552277,611.504028,144L611.504028,105L631.504028,105L631.504028,124z"/>
    <circle transform="matrix(-0.707107,0.707107,0.707107,0.707107,-395.506653,94.462006)" style="stroke:#000000;stroke-width:0.05mm;fill:none" r="3.5" cx="0" cy="0"/>
    <path transform="matrix(-0.707107,0.707107,0.707107,0.707107,-36.315514,-424.879395)" style="stroke:#000000;stroke-width:0.05mm;fill:none" d="M631.504028,122C631.504028,123.656853,632.847168,125,634.504028,125L651.504028,125L651.504028,145L614.504028,145C612.847168,145,611.504028,143.65686,611.504028,142L611.504028,105L631.504028,105L631.504028,122z"/>
    <circle transform="matrix(-0.707107,0.707107,0.707107,0.707107,-452.07489,94.462402)" style="stroke:#000000;stroke-width:0.05mm;fill:none" r="3.5" cx="0" cy="0"/>
    <path transform="matrix(-0.707107,0.707107,0.707107,0.707107,-92.88398,-424.878754)" style="stroke:#000000;stroke-width:0.05mm;fill:none" d="M631.504028,120C631.504028,122.761421,633.742615,125,636.504028,125L651.504028,125L651.504028,145L616.504028,145C613.742615,145,611.504028,142.761414,611.504028,140L611.504028,105L631.504028,105L631.504028,120z"/>
    <circle transform="matrix(-0.707107,0.707107,0.707107,0.707107,-508.643127,94.461121)" style="stroke:#000000;stroke-width:0.05mm;fill:none" r="3.5" cx="0" cy="0"/>
    <path transform="matrix(-0.707107,0.707107,0.707107,0.707107,-149.452408,-424.879333)" style="stroke:#000000;stroke-width:0.05mm;fill:none" d="M631.504028,118C631.504028,121.865997,634.638062,125,638.504028,125L651.504028,125L651.504028,145L618.504028,145C614.638062,145,611.504028,141.865997,611.504028,138L611.504028,105L631.504028,105L631.504028,118z"/>
    <path transform="matrix(-0.707107,0.707107,0.707107,0.707107,-177.736908,-424.878479)" style="stroke:#000000;stroke-width:0.05mm;fill:none" d="M631.504028,117C631.504028,121.418266,635.085754,125,639.504028,125L651.504028,125L651.504028,145L619.504028,145C615.085754,145,611.504028,141.418274,611.504028,137L611.504028,105L631.504028,105L631.504028,117z"/>
    <circle transform="matrix(-0.707107,0.707107,0.707107,0.707107,-536.927307,94.462769)" style="stroke:#000000;stroke-width:0.05mm;fill:none" r="3.5" cx="0" cy="0"/>
    <circle transform="matrix(-0.707107,0.707107,0.707107,0.707107,-565.211609,94.461548)" style="stroke:#000000;stroke-width:0.05mm;fill:none" r="3.5" cx="0" cy="0"/>
    <path transform="matrix(-0.707107,0.707107,0.707107,0.707107,-206.020981,-424.879211)" style="stroke:#000000;stroke-width:0.05mm;fill:none" d="M631.504028,116C631.504028,120.970573,635.533447,125,640.504028,125L651.504028,125L651.504028,145L620.504028,145C615.533447,145,611.504028,140.970566,611.504028,136L611.504028,105L631.504028,105L631.504028,116z"/>
    <circle transform="matrix(-0.707107,0.707107,0.707107,0.707107,-593.49646,94.462158)" style="stroke:#000000;stroke-width:0.05mm;fill:none" r="3.5" cx="0" cy="0"/>
    <path transform="matrix(-0.707107,0.707107,0.707107,0.707107,-234.305908,-424.878784)" style="stroke:#000000;stroke-width:0.05mm;fill:none" d="M631.504028,115C631.504028,120.522842,635.981201,125,641.504028,125L651.504028,125L651.504028,145L621.504028,145C615.981201,145,611.504028,140.522842,611.504028,135L611.504028,105L631.504028,105L631.504028,115z"/>
    <path transform="matrix(-0.707107,0.707107,0.707107,0.707107,-64.599762,-424.878632)" style="stroke:#000000;stroke-width:0.05mm;fill:none" d="M631.504028,121C631.504028,123.209137,633.294861,125,635.504028,125L651.504028,125L651.504028,145L615.504028,145C613.294861,145,611.504028,143.209137,611.504028,141L611.504028,105L631.504028,105L631.504028,121z"/>
    <circle transform="matrix(-0.707107,0.707107,0.707107,0.707107,-423.790436,94.462311)" style="stroke:#000000;stroke-width:0.05mm;fill:none" r="3.5" cx="0" cy="0"/>
    <path transform="matrix(-0.707107,0.707107,0.707107,0.707107,-121.167915,-424.87915)" style="stroke:#000000;stroke-width:0.05mm;fill:none" d="M631.504028,119C631.504028,122.313713,634.190308,125,637.504028,125L651.504028,125L651.504028,145L617.504028,145C614.190308,145,611.504028,142.313705,611.504028,139L611.504028,105L631.504028,105L631.504028,119z"/>
    <circle transform="matrix(-0.707107,0.707107,0.707107,0.707107,-480.358765,94.461792)" style="stroke:#000000;stroke-width:0.05mm;fill:none" r="3.5" cx="0" cy="0"/>
    <circle transform="matrix(-0.707107,0.707107,0.707107,0.707107,-367.222107,94.462677)" style="stroke:#000000;stroke-width:0.05mm;fill:none" r="3.5" cx="0" cy="0"/>
    <path transform="matrix(-0.707107,0.707107,0.707107,0.707107,-8.03126,-424.878418)" style="stroke:#000000;stroke-width:0.05mm;fill:none" d="M631.504028,123C631.504028,124.104568,632.399475,125,633.504028,125L651.504028,125L651.504028,145L613.504028,145C612.399475,145,611.504028,144.104568,611.504028,143L611.504028,105L631.504028,105L631.504028,123z"/>
    <circle transform="matrix(-0.707107,0.707107,0.707107,0.707107,-650.064148,94.462013)" style="stroke:#000000;stroke-width:0.05mm;fill:none" r="3.5" cx="0" cy="0"/>
    <path transform="matrix(-0.707107,0.707107,0.707107,0.707107,-290.874146,-424.878693)" style="stroke:#000000;stroke-width:0.05mm;fill:none" d="M631.504028,113C631.504028,119.627411,636.876587,125,643.504028,125L651.504028,125L651.504028,145L623.504028,145C616.876587,145,611.504028,139.627411,611.504028,133L611.504028,105L631.504028,105L631.504028,113z"/>
    <path transform="matrix(-1,0,0,1,0,0)" style="stroke:none;fill:#00e000;fill-rule:evenodd" d="M312.809509,125.687637C313.023956,125.997108,313.037659,126.403152,312.844543,126.726372C312.51297,127.31678,312.008667,127.790855,311.398926,128.085342C310.992157,128.254471,310.522034,128.111328,310.278534,127.744217C310.063629,127.434219,310.050385,127.027237,310.24469,126.703934C310.56662,126.132431,311.050262,125.669449,311.635254,125.372749C312.050049,125.169312,312.552185,125.303963,312.809509,125.687637zM312.36792,125.712494L312.248291,125.661568C311.9646,125.617233,311.677216,125.712296,311.475922,125.917068C311.100342,126.203293,310.782562,126.558327,310.539551,126.963226C310.386932,127.224144,310.466888,127.559509,310.720825,127.723503C310.981995,127.838783,311.286194,127.790817,311.499237,127.600761C311.927429,127.295143,312.28656,126.903206,312.55368,126.449989C312.675751,126.237778,312.642731,125.970299,312.472717,125.794151L312.36792,125.712494z"/>
    <path transform="matrix(-1,0,0,1,0,0)" style="stroke:none;fill:#00e000;fill-rule:evenodd" d="M310.336029,124.398407C310.486938,124.59037,310.543823,124.839828,310.491028,125.078239L310.720978,124.848289L310.969574,125.096886L309.330597,126.73587L309.052673,126.457924L309.903046,125.607536C310.076447,125.46814,310.197662,125.274132,310.246948,125.057182C310.272705,124.794167,310.10321,124.551872,309.84729,124.485931C309.681427,124.491341,309.526337,124.568192,309.42157,124.696892L308.356598,125.761871L308.078827,125.4841L309.031067,124.531853C309.214783,124.393852,309.30838,124.165581,309.274506,123.938339C309.233826,123.70015,309.030945,123.524124,308.789398,123.517464C308.643616,123.557449,308.51413,123.641624,308.418396,123.758629L307.385895,124.791153L307.109497,124.514763L308.234558,123.389709C308.372864,123.227097,308.569244,123.124878,308.781799,123.104866C309.123688,123.130684,309.412109,123.368538,309.502533,123.699242C309.539612,123.842911,309.542511,123.993263,309.510986,124.138252L309.603546,124.102341C309.88562,124.036232,310.179108,124.154861,310.336029,124.398407z"/>
    <path transform="matrix(-1,0,0,1,0,0)" style="stroke:none;fill:#00e000;fill-rule:evenodd" d="M307.703186,121.765572C307.853973,121.957596,307.910858,122.206993,307.858215,122.445404L308.088165,122.215454L308.336578,122.463875L306.697601,124.102859L306.41983,123.825096L307.270203,122.974701C307.443573,122.835289,307.564819,122.641281,307.614105,122.424347C307.639771,122.16127,307.470245,121.918961,307.214294,121.852928C307.048431,121.858269,306.893341,121.935219,306.788757,122.064056L305.723755,123.129036L305.445984,122.851265L306.398254,121.899017C306.581696,121.760826,306.675262,121.532715,306.641663,121.305504C306.600983,121.067307,306.398102,120.891281,306.156555,120.884628C306.010681,120.924423,305.881104,121.008568,305.7854,121.125626L304.752869,122.158142L304.476654,121.881927L305.601715,120.756874C305.73999,120.594185,305.936371,120.491959,306.148956,120.472031C306.490753,120.497803,306.779144,120.735596,306.869537,121.066238C306.906555,121.209961,306.909515,121.360344,306.878174,121.505417L306.97052,121.469337C307.252686,121.403252,307.546234,121.521942,307.703186,121.765572z"/>
    <path transform="matrix(-1,0,0,1,0,0)" style="stroke:none;fill:#00e000;fill-rule:evenodd" d="M624.426514,126.310272L624.406677,126.440613C624.380188,126.771889,624.427124,127.104927,624.544067,127.415993L624.275452,127.684608C624.150635,127.402893,624.075989,127.101585,624.054871,126.794167L622.284668,128.564346L622.006714,128.286407L624.278564,126.014557L624.457764,126.193748L624.426514,126.310272z"/>
    <path transform="matrix(-1,0,0,1,0,0)" style="stroke:none;fill:#00e000;fill-rule:evenodd" d="M622.903381,124.787132L622.883545,124.917465C622.857056,125.248741,622.903992,125.581787,623.020935,125.892845L622.752319,126.161469C622.627502,125.879745,622.552856,125.578438,622.531677,125.271019L620.761536,127.041206L620.483582,126.763268L622.755432,124.491409L622.934631,124.670601L622.903381,124.787132z"/>
    <path transform="matrix(-1,0,0,1,0,0)" style="stroke:none;fill:#00e000;fill-rule:evenodd" d="M620.700745,123.637566C620.851563,123.82959,620.908386,124.078979,620.855774,124.317398L621.085754,124.087448L621.334167,124.335869L619.69519,125.974846L619.417419,125.697083L620.267761,124.846687C620.441162,124.707275,620.562378,124.513268,620.611694,124.296333C620.637329,124.033257,620.467773,123.790939,620.211853,123.724915C620.046021,123.730255,619.890869,123.807205,619.786316,123.93605L618.721313,125.001022L618.44342,124.723083L619.39563,123.770836C619.579224,123.63282,619.672913,123.404701,619.639221,123.177498C619.598572,122.939293,619.395691,122.763275,619.154114,122.756615C619.00824,122.796417,618.878662,122.880554,618.782959,122.997612L617.750427,124.030128L617.474243,123.753922L618.599304,122.628868C618.737549,122.466171,618.93396,122.363945,619.146545,122.344017C619.488342,122.369789,619.776672,122.60759,619.867126,122.938225C619.904114,123.081955,619.907043,123.232338,619.875732,123.377403L619.968079,123.341324C620.250244,123.275238,620.543823,123.393936,620.700745,123.637566z"/>
    <path transform="matrix(-1,0,0,1,0,0)" style="stroke:none;fill:#00e000;fill-rule:evenodd" d="M618.067749,121.004555C618.218689,121.196518,618.275574,121.445976,618.222778,121.684387L618.452698,121.454437L618.701294,121.703033L617.062317,123.342018L616.784363,123.064072L617.634766,122.213684C617.80835,122.074471,617.929626,121.880371,617.978638,121.663322C618.004456,121.400307,617.834961,121.15802,617.579041,121.092079C617.413147,121.097519,617.258057,121.17437,617.15332,121.30304L616.088318,122.368019L615.810547,122.090248L616.762817,121.138C616.946472,121,617.0401,120.771729,617.006226,120.544487C616.965515,120.306297,616.762695,120.130287,616.521118,120.123611C616.375366,120.163597,616.24585,120.247772,616.150146,120.364777L615.117615,121.397301L614.84137,121.121086L615.966431,119.996033C616.104614,119.833252,616.300964,119.730949,616.51355,119.711014C616.855408,119.736847,617.143799,119.974693,617.234253,120.305389C617.271362,120.449059,617.274231,120.599411,617.242737,120.7444L617.335266,120.708488C617.617371,120.64238,617.910828,120.761002,618.067749,121.004555z"/>
    <path transform="matrix(-1,0,0,1,0,0)" style="stroke:none;fill:#00e000;fill-rule:evenodd" d="M340.822632,125.548218L340.802979,125.678734C340.776459,126.01001,340.823364,126.343056,340.940369,126.654114L340.671753,126.922729C340.546967,126.640923,340.47226,126.339577,340.450958,126.032112L338.680786,127.802299L338.403015,127.524529L340.674866,125.25267L340.853882,125.431694L340.822632,125.548218z"/>
    <path transform="matrix(-1,0,0,1,0,0)" style="stroke:none;fill:#00e000;fill-rule:evenodd" d="M338.620026,124.398651C338.770935,124.590614,338.82782,124.840073,338.775024,125.078484L339.004974,124.848534L339.253571,125.09713L337.614594,126.736115L337.33667,126.458168L338.187042,125.60778C338.360443,125.468384,338.481659,125.274376,338.530945,125.057426C338.556702,124.794411,338.387207,124.552116,338.131287,124.486176C337.965424,124.491585,337.810333,124.568436,337.705566,124.697136L336.640594,125.762115L336.362823,125.484344L337.315063,124.532097C337.498779,124.394096,337.592377,124.165825,337.558502,123.938583C337.517822,123.700394,337.314941,123.524368,337.073395,123.517708C336.927612,123.557693,336.798126,123.641869,336.702393,123.758873L335.669891,124.791397L335.393494,124.515007L336.518555,123.389954C336.65686,123.227341,336.853241,123.125122,337.065796,123.10511C337.407684,123.130928,337.696106,123.368782,337.78653,123.699486C337.823608,123.843155,337.826508,123.993507,337.794983,124.138496L337.887543,124.102585C338.169617,124.036476,338.463104,124.155106,338.620026,124.398651z"/>
    <path transform="matrix(-1,0,0,1,0,0)" style="stroke:none;fill:#00e000;fill-rule:evenodd" d="M335.987183,121.765816C336.13797,121.95784,336.194855,122.207237,336.142212,122.445648L336.372162,122.215698L336.620575,122.464119L334.981598,124.103104L334.703827,123.82534L335.554199,122.974945C335.72757,122.835533,335.848816,122.641525,335.898102,122.424591C335.923767,122.161514,335.754242,121.919205,335.498291,121.853172C335.332428,121.858513,335.177338,121.935463,335.072754,122.064301L334.007751,123.12928L333.72998,122.851509L334.682251,121.899261C334.865692,121.76107,334.959259,121.532959,334.925659,121.305748C334.884979,121.067551,334.682098,120.891525,334.440552,120.884872C334.294678,120.924667,334.1651,121.008812,334.069397,121.12587L333.036865,122.158386L332.760651,121.882172L333.885712,120.757118C334.023987,120.594429,334.220367,120.492203,334.432953,120.472275C334.77475,120.498047,335.063141,120.73584,335.153534,121.066483C335.190552,121.210205,335.193512,121.360588,335.16217,121.505661L335.254517,121.469582C335.536682,121.403496,335.830231,121.522186,335.987183,121.765816z"/>
    <path transform="matrix(-1,0,0,1,0,0)" style="stroke:none;fill:#00e000;fill-rule:evenodd" d="M397.69928,125.726791C397.944763,126.066063,397.934631,126.527344,397.674408,126.855469L397.346924,126.627075L397.422363,126.511238C397.502838,126.387199,397.531891,126.236397,397.501678,126.091667C397.471466,125.946938,397.384491,125.820366,397.261139,125.738876C397.064789,125.592941,396.790283,125.616508,396.621704,125.793777C396.443268,125.964165,396.416748,126.24028,396.55954,126.441498C396.607544,126.531563,396.673309,126.610985,396.752899,126.674896L396.539856,126.94973L396.455261,126.818871C396.366699,126.677895,396.224945,126.578468,396.062073,126.544006C395.8992,126.509544,395.729309,126.54303,395.591248,126.636055C395.443726,126.732414,395.340454,126.883453,395.304565,127.055962C395.268707,127.22847,395.303253,127.408157,395.400146,127.555328C395.486755,127.690277,395.622955,127.786278,395.779602,127.820572C395.936218,127.854866,396.100067,127.824562,396.235168,127.738144L396.373108,127.656494L396.614105,127.971375C396.326691,128.221039,395.919312,128.278381,395.574158,128.117767C395.120697,127.910049,394.858551,127.427483,394.931091,126.934021C394.997101,126.497551,395.366119,126.171303,395.807373,126.159241C395.941254,126.168411,396.070557,126.211472,396.183197,126.284401L396.149536,126.173393C396.06192,125.821236,396.256256,125.459908,396.598389,125.338882C397.010864,125.202133,397.463623,125.361679,397.69928,125.726791z"/>
    <path transform="matrix(-1,0,0,1,0,0)" style="stroke:none;fill:#00e000;fill-rule:evenodd" d="M395.188843,124.397858C395.339752,124.589821,395.396637,124.839279,395.343842,125.07769L395.573792,124.84774L395.822388,125.096336L394.183411,126.735321L393.905487,126.457375L394.755859,125.606987C394.92926,125.46759,395.050476,125.273582,395.099762,125.056633C395.125519,124.793617,394.956024,124.551323,394.700104,124.485382C394.534241,124.490791,394.37915,124.567642,394.274384,124.696342L393.209412,125.761322L392.931641,125.483551L393.883881,124.531303C394.067596,124.393303,394.161194,124.165031,394.127319,123.93779C394.086639,123.6996,393.883759,123.523575,393.642212,123.516914C393.496429,123.5569,393.366943,123.641075,393.27121,123.75808L392.238708,124.790604L391.962311,124.514214L393.087372,123.38916C393.225677,123.226547,393.422058,123.124329,393.634613,123.104317C393.976501,123.130135,394.264923,123.367989,394.355347,123.698692C394.392426,123.842361,394.395325,123.992714,394.3638,124.137703L394.45636,124.101791C394.738434,124.035683,395.031921,124.154312,395.188843,124.397858z"/>
    <path transform="matrix(-1,0,0,1,0,0)" style="stroke:none;fill:#00e000;fill-rule:evenodd" d="M392.556,121.765022C392.706787,121.957047,392.763672,122.206444,392.711029,122.444855L392.940979,122.214905L393.189392,122.463326L391.550415,124.10231L391.272644,123.824547L392.123047,122.974152C392.296387,122.83474,392.417633,122.640732,392.466919,122.423798C392.492584,122.160721,392.323059,121.918411,392.067108,121.852379C391.901245,121.857719,391.746155,121.934669,391.641571,122.063507L390.576569,123.128487L390.298828,122.850716L391.251068,121.898468C391.434509,121.760277,391.528076,121.532166,391.494476,121.304955C391.453796,121.066757,391.250916,120.890732,391.009369,120.884079C390.863495,120.923874,390.733917,121.008018,390.638214,121.125076L389.605682,122.157593L389.329468,121.881378L390.454529,120.756325C390.592804,120.593636,390.789185,120.491409,391.00177,120.471481C391.343567,120.497253,391.631958,120.735046,391.722351,121.065689C391.759369,121.209412,391.762329,121.359795,391.730988,121.504868L391.823334,121.468788C392.105499,121.402702,392.399048,121.521393,392.556,121.765022z"/>
    <path transform="matrix(-1,0,0,1,0,0)" style="stroke:none;fill:#00e000;fill-rule:evenodd" d="M453.606262,127.451874L453.311554,127.224854L453.326416,127.063614C453.310822,126.688568,453.006989,126.390182,452.631744,126.381371C452.2211,126.425629,451.899323,126.751999,451.860931,127.163223C451.842346,127.465515,452.03949,127.738777,452.332214,127.816475C452.53891,127.854622,452.751678,127.797852,452.911926,127.661789L453.178802,127.978058C452.894562,128.230591,452.485809,128.286453,452.144226,128.119446C451.718323,127.923035,451.461273,127.480835,451.501312,127.01355C451.563141,126.450935,452.019897,126.015015,452.584778,125.979477C453.083557,125.982506,453.504883,126.350082,453.575531,126.843857L454.061646,126.113617L453.158783,125.210739L453.424133,124.945404L454.549347,126.070633L453.606262,127.451874z"/>
    <path transform="matrix(-1,0,0,1,0,0)" style="stroke:none;fill:#00e000;fill-rule:evenodd" d="M451.756836,124.398499C451.907745,124.590462,451.96463,124.83992,451.911835,125.078331L452.141785,124.848381L452.390381,125.096977L450.751404,126.735962L450.47348,126.458015L451.323853,125.607628C451.497253,125.468231,451.618469,125.274223,451.667755,125.057274C451.693512,124.794258,451.524017,124.551964,451.268097,124.486023C451.102234,124.491432,450.947144,124.568283,450.842377,124.696983L449.777405,125.761963L449.499634,125.484192L450.451874,124.531944C450.63559,124.393944,450.729187,124.165672,450.695313,123.938431C450.654633,123.700241,450.451752,123.524216,450.210205,123.517555C450.064423,123.557541,449.934937,123.641716,449.839203,123.75872L448.806702,124.791245L448.530304,124.514854L449.655365,123.389801C449.793671,123.227188,449.990051,123.124969,450.202606,123.104958C450.544495,123.130775,450.832916,123.368629,450.92334,123.699333C450.960419,123.843002,450.963318,123.993355,450.931793,124.138344L451.024353,124.102432C451.306427,124.036324,451.599915,124.154953,451.756836,124.398499z"/>
    <path transform="matrix(-1,0,0,1,0,0)" style="stroke:none;fill:#00e000;fill-rule:evenodd" d="M449.123993,121.765663C449.27478,121.957687,449.331665,122.207085,449.279022,122.445496L449.508972,122.215546L449.757385,122.463966L448.118408,124.102951L447.840637,123.825188L448.69104,122.974792C448.86438,122.835381,448.985626,122.641373,449.034912,122.424438C449.060577,122.161362,448.891052,121.919052,448.635101,121.85302C448.469238,121.85836,448.314148,121.93531,448.209564,122.064148L447.144562,123.129128L446.866821,122.851357L447.819061,121.899109C448.002502,121.760918,448.096069,121.532806,448.062469,121.305595C448.02179,121.067398,447.818909,120.891373,447.577362,120.88472C447.431488,120.924515,447.30191,121.008659,447.206207,121.125717L446.173676,122.158234L445.897461,121.882019L447.022522,120.756966C447.160797,120.594276,447.357178,120.49205,447.569763,120.472122C447.91156,120.497894,448.199951,120.735687,448.290344,121.06633C448.327362,121.210052,448.330322,121.360435,448.298981,121.505508L448.391327,121.469429C448.673492,121.403343,448.967041,121.522034,449.123993,121.765663z"/>
    <path transform="matrix(-1,0,0,1,0,0)" style="stroke:none;fill:#00e000;fill-rule:evenodd" d="M511.103027,126.585327L509.994904,125.477196C509.908203,126.498505,509.496582,127.464973,508.820313,128.235184L508.53476,127.949654L508.68515,127.768906C509.275055,126.985741,509.623901,126.04808,509.689331,125.069778L509.905304,124.853813L511.369934,126.318436L511.103027,126.585327z"/>
    <path transform="matrix(-1,0,0,1,0,0)" style="stroke:none;fill:#00e000;fill-rule:evenodd" d="M508.325897,124.397888C508.476807,124.589851,508.533691,124.83931,508.480896,125.077721L508.710846,124.847771L508.959442,125.096367L507.320465,126.735352L507.042542,126.457405L507.892914,125.607018C508.066315,125.467621,508.187531,125.273613,508.236816,125.056664C508.262573,124.793648,508.093079,124.551353,507.837158,124.485413C507.671295,124.490822,507.516205,124.567673,507.411438,124.696373L506.346466,125.761353L506.068695,125.483582L507.020935,124.531334C507.204651,124.393333,507.298248,124.165062,507.264374,123.93782C507.223694,123.699631,507.020813,123.523605,506.779266,123.516945C506.633484,123.556931,506.503998,123.641106,506.408264,123.75811L505.375763,124.790634L505.099365,124.514244L506.224426,123.389191C506.362732,123.226578,506.559113,123.124359,506.771667,123.104347C507.113556,123.130165,507.401978,123.368019,507.492401,123.698723C507.52948,123.842392,507.532379,123.992744,507.500854,124.137733L507.593414,124.101822C507.875488,124.035713,508.168976,124.154343,508.325897,124.397888z"/>
    <path transform="matrix(-1,0,0,1,0,0)" style="stroke:none;fill:#00e000;fill-rule:evenodd" d="M505.693054,121.765053C505.843842,121.957077,505.900726,122.206474,505.848083,122.444885L506.078033,122.214935L506.326447,122.463356L504.687469,124.102341L504.409698,123.824577L505.260071,122.974182C505.433441,122.83477,505.554688,122.640762,505.603973,122.423828C505.629639,122.160751,505.460114,121.918442,505.204163,121.852409C505.0383,121.85775,504.883209,121.9347,504.778625,122.063538L503.713623,123.128517L503.435852,122.850746L504.388123,121.898499C504.571564,121.760307,504.665131,121.532196,504.631531,121.304985C504.590851,121.066788,504.38797,120.890762,504.146423,120.884109C504.000549,120.923904,503.870972,121.008049,503.775269,121.125107L502.742737,122.157623L502.466522,121.881409L503.591583,120.756355C503.729858,120.593666,503.926239,120.49144,504.138824,120.471512C504.480621,120.497284,504.769012,120.735077,504.859406,121.06572C504.896423,121.209442,504.899384,121.359825,504.868042,121.504898L504.960388,121.468819C505.242554,121.402733,505.536102,121.521423,505.693054,121.765053z"/>
    <path transform="matrix(-1,0,0,1,0,0)" style="stroke:none;fill:#00e000;fill-rule:evenodd" d="M539.102356,125.712029C539.276001,125.924011,539.329041,126.210304,539.242249,126.47023C539.155518,126.730164,538.941101,126.927147,538.674866,126.992279C538.525024,127.012238,538.372559,126.985855,538.238159,126.916664L538.302673,127.04718C538.424805,127.352516,538.342163,127.701691,538.096069,127.919838C537.758179,128.266602,537.214966,128.307098,536.829468,128.014267C536.526184,127.818985,536.334778,127.489685,536.315186,127.129524C536.30481,126.673889,536.621155,126.27639,537.067505,126.184181C537.252197,126.158096,537.44043,126.192558,537.603882,126.28241L537.559998,126.168472C537.44873,125.811569,537.64325,125.430969,537.997681,125.312035C538.342957,125.186356,538.730286,125.285431,538.972839,125.561493L539.102356,125.712029zM538.659363,125.717896L538.570801,125.66835C538.345032,125.571609,538.082275,125.650711,537.947388,125.856003C537.81427,126.059616,537.848511,126.329742,538.028198,126.493713C538.121826,126.597778,538.2547,126.658226,538.394653,126.659706C538.534607,126.661179,538.668701,126.603546,538.764465,126.50148C538.931213,126.329826,538.950867,126.063553,538.811096,125.869301C538.769531,125.810555,538.718201,125.759354,538.659363,125.717896zM537.704712,126.64045L537.592468,126.577271C537.30072,126.454277,536.962646,126.559433,536.792175,126.826202C536.617126,127.081177,536.655762,127.425995,536.882935,127.635857C537.003357,127.763313,537.170776,127.836403,537.346069,127.836372C537.521423,127.836334,537.688782,127.763191,537.809143,127.635681C537.933716,127.51767,538.004333,127.353615,538.004333,127.182007C538.004333,127.010391,537.933716,126.846344,537.809143,126.728325L537.704712,126.64045z"/>
    <path transform="matrix(-1,0,0,1,0,0)" style="stroke:none;fill:#00e000;fill-rule:evenodd" d="M536.609314,124.398804C536.760254,124.590767,536.817139,124.840225,536.764343,125.078636L536.994324,124.848686L537.24292,125.097282L535.603943,126.736267L535.325989,126.458321L536.176392,125.607933C536.349731,125.468536,536.471008,125.274529,536.520264,125.057579C536.546021,124.794563,536.376526,124.552269,536.120605,124.486328C535.954773,124.491737,535.799683,124.568588,535.694885,124.697289L534.629944,125.762268L534.352173,125.484497L535.304382,124.532249C535.488098,124.394249,535.581726,124.165977,535.547791,123.938736C535.507141,123.700546,535.30426,123.524521,535.062683,123.51786C534.916931,123.557846,534.787415,123.642021,534.691711,123.759026L533.65918,124.79155L533.382813,124.51516L534.507874,123.390106C534.646179,123.227493,534.84259,123.125275,535.055115,123.105263C535.396973,123.131081,535.685425,123.368935,535.775879,123.699638C535.812927,123.843307,535.815796,123.99366,535.784302,124.138649L535.876831,124.102737C536.158936,124.036629,536.452393,124.155258,536.609314,124.398804z"/>
    <path transform="matrix(-1,0,0,1,0,0)" style="stroke:none;fill:#00e000;fill-rule:evenodd" d="M533.976501,121.765968C534.127319,121.957993,534.184143,122.20739,534.131531,122.445801L534.36145,122.215851L534.609863,122.464272L532.970886,124.103256L532.693115,123.825493L533.543518,122.975098C533.716919,122.835686,533.838135,122.641678,533.88739,122.424744C533.913086,122.161667,533.74353,121.919357,533.48761,121.853325C533.321716,121.858665,533.166626,121.935616,533.062073,122.064453L531.99707,123.129433L531.719299,122.851662L532.67157,121.899414C532.85498,121.761223,532.948547,121.533112,532.914978,121.305901C532.874329,121.067703,532.671448,120.891678,532.429871,120.885025C532.283997,120.92482,532.154419,121.008965,532.058716,121.126022L531.026184,122.158539L530.75,121.882324L531.875,120.757271C532.013306,120.594582,532.209717,120.492355,532.422302,120.472427C532.764099,120.498199,533.052429,120.735992,533.142822,121.066635C533.179871,121.210358,533.1828,121.360741,533.151489,121.505814L533.243835,121.469734C533.526001,121.403648,533.81958,121.522339,533.976501,121.765968z"/>
    <path transform="matrix(-1,0,0,1,0,0)" style="stroke:none;fill:#00e000;fill-rule:evenodd" d="M567.416687,125.745964C567.690979,126.169731,567.611755,126.730766,567.230774,127.061951C566.915405,127.429077,566.378845,127.511238,565.968079,127.255302C565.651306,127.047127,565.496033,126.664909,565.577942,126.294769C565.288086,126.539398,565.098267,126.881454,565.044006,127.256851C565.043457,127.524483,565.216125,127.761406,565.471069,127.842773C565.645996,127.874367,565.825684,127.826927,565.962219,127.713127L566.20459,128.004868C565.952148,128.22908,565.589783,128.280426,565.284973,128.135208C564.811279,127.906944,564.581116,127.361305,564.748291,126.862732C564.893555,126.496605,565.120789,126.168861,565.41272,125.904442C565.61908,125.678024,565.867615,125.494019,566.144348,125.362717C566.605408,125.167931,567.139954,125.328949,567.416687,125.745964zM566.924316,125.70488L566.818176,125.651535C566.546509,125.565399,566.249512,125.651184,566.065674,125.868881C565.806213,126.072121,565.740784,126.43866,565.913879,126.719101C566.084534,126.982292,566.422729,127.080269,566.707642,126.949051C567.07428,126.786804,567.265198,126.37899,567.154968,125.993523C567.11084,125.87516,567.030029,125.774025,566.924316,125.70488z"/>
    <path transform="matrix(-1,0,0,1,0,0)" style="stroke:none;fill:#00e000;fill-rule:evenodd" d="M564.893616,124.397522C565.044556,124.589485,565.10144,124.838943,565.048645,125.077354L565.278625,124.847404L565.527222,125.096001L563.888245,126.734985L563.610291,126.457039L564.460693,125.606651C564.634033,125.467255,564.75531,125.273247,564.804565,125.056297C564.830322,124.793282,564.660828,124.550987,564.404907,124.485046C564.239075,124.490456,564.083984,124.567307,563.979187,124.696007L562.914246,125.760986L562.636475,125.483215L563.588684,124.530968C563.7724,124.392967,563.866028,124.164696,563.832092,123.937454C563.791443,123.699265,563.588562,123.523239,563.346985,123.516579C563.201233,123.556564,563.071716,123.640739,562.976013,123.757744L561.943481,124.790268L561.667114,124.513878L562.792175,123.388824C562.930481,123.226212,563.126892,123.123993,563.339417,123.103981C563.681274,123.129799,563.969727,123.367653,564.060181,123.698357C564.097229,123.842026,564.100098,123.992378,564.068604,124.137367L564.161133,124.101456C564.443237,124.035347,564.736694,124.153976,564.893616,124.397522z"/>
    <path transform="matrix(-1,0,0,1,0,0)" style="stroke:none;fill:#00e000;fill-rule:evenodd" d="M562.260803,121.764687C562.411621,121.956711,562.468445,122.206108,562.415833,122.444519L562.645752,122.214569L562.894165,122.46299L561.255188,124.101974L560.977417,123.824211L561.82782,122.973816C562.001221,122.834404,562.122437,122.640396,562.171692,122.423462C562.197388,122.160385,562.027832,121.918076,561.771912,121.852043C561.606018,121.857384,561.450928,121.934334,561.346375,122.063171L560.281372,123.128151L560.003601,122.85038L560.955872,121.898132C561.139282,121.759941,561.232849,121.53183,561.19928,121.304619C561.15863,121.066422,560.95575,120.890396,560.714172,120.883743C560.568298,120.923538,560.438721,121.007683,560.343018,121.124741L559.310486,122.157257L559.034302,121.881042L560.159302,120.755989C560.297607,120.5933,560.494019,120.491074,560.706604,120.471146C561.048401,120.496918,561.336731,120.734711,561.427124,121.065353C561.464172,121.209076,561.467102,121.359459,561.435791,121.504532L561.528137,121.468452C561.810303,121.402367,562.103882,121.521057,562.260803,121.764687z"/>
    <path transform="matrix(-1,0,0,1,0,0)" style="stroke:none;fill:#00e000;fill-rule:evenodd" d="M594.773132,124.808548C594.98761,125.118011,595.001343,125.524063,594.808228,125.847282C594.476624,126.437706,593.972351,126.911781,593.362549,127.206253C592.955811,127.375381,592.485657,127.232246,592.242188,126.865128C592.027283,126.55513,592.014038,126.148148,592.208374,125.824837C592.530151,125.25325,593.013916,124.790283,593.59906,124.493835C594.013733,124.29023,594.51593,124.424835,594.773132,124.808548zM594.331543,124.833405L594.211914,124.782478C593.928223,124.738136,593.640869,124.833206,593.439575,125.037979C593.063965,125.324196,592.746216,125.679237,592.503174,126.084137C592.350586,126.345055,592.430542,126.68042,592.684448,126.844414C592.945679,126.959694,593.249817,126.911728,593.462891,126.721672C593.891052,126.416054,594.250183,126.024117,594.517334,125.570892C594.639404,125.358688,594.606384,125.091209,594.43634,124.915062L594.331543,124.833405z"/>
    <path transform="matrix(-1,0,0,1,0,0)" style="stroke:none;fill:#00e000;fill-rule:evenodd" d="M596.260071,126.426636L596.240356,126.557152C596.213867,126.888428,596.260803,127.221474,596.377808,127.532532L596.109192,127.801147C595.984253,127.519386,595.909546,127.218018,595.888367,126.91053L594.118164,128.68071L593.840393,128.402954L596.112305,126.131088L596.291321,126.310112L596.260071,126.426636z"/>
    <path transform="matrix(-1,0,0,1,0,0)" style="stroke:none;fill:#00e000;fill-rule:evenodd" d="M592.299683,123.519318C592.450562,123.711281,592.507446,123.960739,592.454712,124.19915L592.684631,123.9692L592.933228,124.217796L591.29425,125.856773L591.016296,125.578835L591.866699,124.728447C592.0401,124.58905,592.161316,124.395042,592.210571,124.178085C592.236389,123.91507,592.066833,123.672783,591.810913,123.606842C591.645081,123.612282,591.48999,123.689133,591.385254,123.817802L590.320251,124.882774L590.04248,124.605011L590.994751,123.652763C591.178406,123.514763,591.272034,123.286491,591.238159,123.05925C591.197449,122.82106,590.994568,122.64505,590.753052,122.638367C590.607239,122.67836,590.477783,122.762535,590.38208,122.879539L589.349548,123.912056L589.07312,123.635674L590.198181,122.51062C590.336548,122.348007,590.532898,122.245789,590.745422,122.225777C591.087341,122.251595,591.375732,122.489449,591.466187,122.820152C591.503235,122.963821,591.506165,123.114174,591.47467,123.259163L591.5672,123.223251C591.849243,123.157143,592.142761,123.275764,592.299683,123.519318z"/>
    <path transform="matrix(-1,0,0,1,0,0)" style="stroke:none;fill:#00e000;fill-rule:evenodd" d="M589.666809,120.886482C589.817627,121.078506,589.874512,121.327904,589.821838,121.566315L590.051819,121.336365L590.300232,121.584785L588.661255,123.22377L588.383484,122.945999L589.233887,122.095612C589.407227,121.9562,589.528442,121.762192,589.577759,121.54525C589.603455,121.282173,589.433899,121.039864,589.177917,120.973839C589.012085,120.979179,588.856995,121.056129,588.75238,121.184967L587.687439,122.249947L587.409668,121.972176L588.361877,121.019928C588.545349,120.881737,588.638916,120.653618,588.605286,120.426414C588.564636,120.188232,588.361755,120.012222,588.120239,120.005531C587.974365,120.045334,587.844727,120.129471,587.749023,120.246529L586.716553,121.279053L586.440308,121.002838L587.565369,119.877785C587.703674,119.715134,587.900024,119.612915,588.11261,119.592941C588.454468,119.618759,588.74292,119.856613,588.833374,120.187317C588.870178,120.331017,588.873108,120.481316,588.841797,120.626328L588.934204,120.590248C589.21637,120.524162,589.509888,120.642853,589.666809,120.886482z"/>
    <path transform="matrix(-1,0,0,1,0,0)" style="stroke:none;fill:#00e000;fill-rule:evenodd" d="M425.18927,127.865471L424.934631,128.120102L423.953033,127.138512L423.411316,127.680237L423.133545,127.402466L423.675262,126.860741L423.369537,126.555008L423.624176,126.300377L423.929901,126.60611L425.396088,125.139931L425.622925,125.366776L425.18927,127.865471zM424.207672,126.883873L424.916168,127.592361L425.227783,125.863785L424.207672,126.883873z"/>
    <path transform="matrix(-1,0,0,1,0,0)" style="stroke:none;fill:#00e000;fill-rule:evenodd" d="M423.472443,124.398468C423.623352,124.590431,423.680237,124.83989,423.627441,125.0783L423.857391,124.848351L424.105988,125.096947L422.46701,126.735931L422.189087,126.457985L423.039459,125.607597C423.21286,125.468201,423.334076,125.274193,423.383362,125.057243C423.409119,124.794228,423.239624,124.551933,422.983704,124.485992C422.817841,124.491402,422.66275,124.568253,422.557983,124.696953L421.493011,125.761932L421.21524,125.484161L422.16748,124.531914C422.351196,124.393913,422.444794,124.165642,422.410919,123.9384C422.370239,123.700211,422.167358,123.524185,421.925812,123.517525C421.780029,123.55751,421.650543,123.641685,421.55481,123.75869L420.522308,124.791214L420.245911,124.514824L421.370972,123.389771C421.509277,123.227158,421.705658,123.124939,421.918213,123.104927C422.260101,123.130745,422.548523,123.368599,422.638947,123.699303C422.676025,123.842972,422.678925,123.993324,422.6474,124.138313L422.73996,124.102402C423.022034,124.036293,423.315521,124.154922,423.472443,124.398468z"/>
    <path transform="matrix(-1,0,0,1,0,0)" style="stroke:none;fill:#00e000;fill-rule:evenodd" d="M420.8396,121.765633C420.990387,121.957657,421.047272,122.207054,420.994629,122.445465L421.224579,122.215515L421.472992,122.463936L419.834015,124.102921L419.556244,123.825157L420.406616,122.974762C420.579987,122.83535,420.701233,122.641342,420.750519,122.424408C420.776184,122.161331,420.606659,121.919022,420.350708,121.852989C420.184845,121.85833,420.029755,121.93528,419.925171,122.064117L418.860168,123.129097L418.582397,122.851326L419.534668,121.899078C419.718109,121.760887,419.811676,121.532776,419.778076,121.305565C419.737396,121.067368,419.534515,120.891342,419.292969,120.884689C419.147095,120.924484,419.017517,121.008629,418.921814,121.125687L417.889282,122.158203L417.613068,121.881989L418.738129,120.756935C418.876404,120.594246,419.072784,120.49202,419.28537,120.472092C419.627167,120.497864,419.915558,120.735657,420.005951,121.066299C420.042969,121.210022,420.045929,121.360405,420.014587,121.505478L420.106934,121.469398C420.389099,121.403313,420.682648,121.522003,420.8396,121.765633z"/>
    <path transform="matrix(-1,0,0,1,0,0)" style="stroke:none;fill:#00e000;fill-rule:evenodd" d="M482.496155,125.684814C482.71936,126.063515,482.700195,126.53727,482.447144,126.896698C482.136047,127.419296,481.675476,127.83622,481.124573,128.093918C480.652252,128.25444,480.132355,128.054199,479.88974,127.618309C479.668365,127.193245,479.764587,126.671951,480.123138,126.353943C480.297028,126.153938,480.545227,126.033844,480.809967,126.021584C481.074707,126.009315,481.332947,126.105957,481.524567,126.289032C481.748566,126.51062,481.842529,126.832069,481.773163,127.13942C482.033936,126.919228,482.215454,126.619408,482.289673,126.28627C482.350342,126.011948,482.207458,125.732933,481.949432,125.621803C481.759644,125.554489,481.548248,125.590958,481.391998,125.717957L481.137177,125.419991C481.392853,125.19767,481.756134,125.147896,482.062164,125.293282C482.237396,125.385315,482.386627,125.519943,482.496155,125.684814zM481.235413,126.507408L481.12735,126.450096C480.863068,126.358345,480.569305,126.439934,480.390198,126.654839C480.130249,126.861717,480.056427,127.226089,480.215332,127.517838C480.379669,127.759033,480.689819,127.853012,480.960419,127.743637C481.272186,127.646935,481.49353,127.369911,481.519043,127.044472C481.523346,126.828537,481.416168,126.62561,481.235413,126.507408z"/>
    <path transform="matrix(-1,0,0,1,0,0)" style="stroke:none;fill:#00e000;fill-rule:evenodd" d="M480.040802,124.397827C480.191711,124.58979,480.248596,124.839249,480.195801,125.07766L480.425751,124.84771L480.674347,125.096306L479.03537,126.735291L478.757446,126.457344L479.607819,125.606956C479.781219,125.46756,479.902435,125.273552,479.951721,125.056602C479.977478,124.793587,479.807983,124.551292,479.552063,124.485352C479.3862,124.490761,479.23111,124.567612,479.126343,124.696312L478.061371,125.761292L477.7836,125.483521L478.73584,124.531273C478.919556,124.393272,479.013153,124.165001,478.979279,123.937759C478.938599,123.69957,478.735718,123.523544,478.494171,123.516884C478.348389,123.55687,478.218903,123.641045,478.123169,123.758049L477.090668,124.790573L476.81427,124.514183L477.939331,123.38913C478.077637,123.226517,478.274017,123.124298,478.486572,123.104286C478.828461,123.130104,479.116882,123.367958,479.207306,123.698662C479.244385,123.842331,479.247284,123.992683,479.215759,124.137672L479.308319,124.101761C479.590393,124.035652,479.883881,124.154282,480.040802,124.397827z"/>
    <path transform="matrix(-1,0,0,1,0,0)" style="stroke:none;fill:#00e000;fill-rule:evenodd" d="M477.407959,121.764992C477.558746,121.957016,477.615631,122.206413,477.562988,122.444824L477.792938,122.214874L478.041351,122.463295L476.402374,124.10228L476.124603,123.824516L476.974976,122.974121C477.148346,122.834709,477.269592,122.640701,477.318878,122.423767C477.344543,122.16069,477.175018,121.918381,476.919067,121.852348C476.753204,121.857689,476.598114,121.934639,476.49353,122.063477L475.428528,123.128456L475.150757,122.850685L476.103027,121.898438C476.286469,121.760246,476.380035,121.532135,476.346436,121.304924C476.305756,121.066727,476.102875,120.890701,475.861328,120.884048C475.715454,120.923843,475.585876,121.007988,475.490173,121.125046L474.457642,122.157562L474.181427,121.881348L475.306488,120.756294C475.444763,120.593605,475.641144,120.491379,475.853729,120.471451C476.195526,120.497223,476.483917,120.735016,476.57431,121.065659C476.611328,121.209381,476.614288,121.359764,476.582947,121.504837L476.675293,121.468758C476.957458,121.402672,477.251007,121.521362,477.407959,121.764992z"/>
    <path transform="matrix(-1,0,0,1,0,0)" style="stroke:none;fill:#00e000;fill-rule:evenodd" d="M369.396576,125.710831C369.688873,126.07605,369.662109,126.602669,369.334259,126.936356L369.019379,126.680168L369.112061,126.571236C369.295624,126.327866,369.259888,125.983795,369.030243,125.783333C368.928711,125.66629,368.783417,125.596138,368.628601,125.589737C368.473755,125.583328,368.323181,125.641235,368.212311,125.749496C368.06369,125.9291,367.98526,126.15625,367.991333,126.389282C367.991302,126.788193,368.012146,127.186836,368.053833,127.583557L368.055054,127.750153C368.062866,128.01384,367.995636,128.274307,367.861176,128.501282L367.769318,128.606247L366.273804,127.110718L366.54071,126.843826L367.650391,127.953514C367.689026,127.734383,367.693878,127.510681,367.664703,127.290085L367.628296,126.821037C367.581726,126.476433,367.609314,126.125725,367.709259,125.792656C367.861023,125.371872,368.30542,125.132225,368.740387,125.236603C369.006226,125.316383,369.237396,125.483459,369.396576,125.710831z"/>
    <path transform="matrix(-1,0,0,1,0,0)" style="stroke:none;fill:#00e000;fill-rule:evenodd" d="M366.904449,124.398468C367.055359,124.590431,367.112244,124.83989,367.059448,125.0783L367.289398,124.848351L367.537994,125.096947L365.899017,126.735931L365.621094,126.457985L366.471466,125.607597C366.644867,125.468201,366.766083,125.274193,366.815369,125.057243C366.841125,124.794228,366.671631,124.551933,366.41571,124.485992C366.249847,124.491402,366.094757,124.568253,365.98999,124.696953L364.925018,125.761932L364.647247,125.484161L365.599487,124.531914C365.783203,124.393913,365.876801,124.165642,365.842926,123.9384C365.802246,123.700211,365.599365,123.524185,365.357819,123.517525C365.212036,123.55751,365.08255,123.641685,364.986816,123.75869L363.954315,124.791214L363.677917,124.514824L364.802979,123.389771C364.941284,123.227158,365.137665,123.124939,365.35022,123.104927C365.692108,123.130745,365.98053,123.368599,366.070953,123.699303C366.108032,123.842972,366.110931,123.993324,366.079407,124.138313L366.171967,124.102402C366.454041,124.036293,366.747528,124.154922,366.904449,124.398468z"/>
    <path transform="matrix(-1,0,0,1,0,0)" style="stroke:none;fill:#00e000;fill-rule:evenodd" d="M364.271606,121.765633C364.422394,121.957657,364.479279,122.207054,364.426636,122.445465L364.656586,122.215515L364.904999,122.463936L363.266022,124.102921L362.988251,123.825157L363.838623,122.974762C364.011993,122.83535,364.13324,122.641342,364.182526,122.424408C364.208191,122.161331,364.038666,121.919022,363.782715,121.852989C363.616852,121.85833,363.461761,121.93528,363.357178,122.064117L362.292175,123.129097L362.014404,122.851326L362.966675,121.899078C363.150116,121.760887,363.243683,121.532776,363.210083,121.305565C363.169403,121.067368,362.966522,120.891342,362.724976,120.884689C362.579102,120.924484,362.449524,121.008629,362.353821,121.125687L361.321289,122.158203L361.045074,121.881989L362.170135,120.756935C362.308411,120.594246,362.504791,120.49202,362.717377,120.472092C363.059174,120.497864,363.347565,120.735657,363.437958,121.066299C363.474976,121.210022,363.477936,121.360405,363.446594,121.505478L363.53894,121.469398C363.821106,121.403313,364.114655,121.522003,364.271606,121.765633z"/>
    <path transform="matrix(-1,0,0,1,0,0)" style="stroke:none;fill:#00e000;fill-rule:evenodd" d="M652.827881,126.426727L652.808167,126.557243C652.781677,126.888519,652.828613,127.221565,652.945618,127.532623L652.677002,127.801239C652.552063,127.519478,652.477356,127.218109,652.456177,126.910622L650.685974,128.680801L650.408203,128.403046L652.680115,126.13118L652.859131,126.310204L652.827881,126.426727z"/>
    <path transform="matrix(-1,0,0,1,0,0)" style="stroke:none;fill:#00e000;fill-rule:evenodd" d="M651.359619,124.831772C651.651917,125.196991,651.625122,125.72361,651.297302,126.057297L650.982422,125.801109L651.075134,125.692177C651.258667,125.448807,651.2229,125.104736,650.993286,124.904274C650.891724,124.787231,650.74646,124.717087,650.591614,124.710678C650.436829,124.704277,650.286194,124.762184,650.175354,124.870438C650.026733,125.050041,649.948303,125.277191,649.954407,125.510223C649.954346,125.909126,649.97522,126.30777,650.016846,126.704498L650.018066,126.871094C650.02594,127.134789,649.958679,127.395256,649.824219,127.622215L649.732361,127.72718L648.236877,126.231659L648.503723,125.964767L649.613403,127.074455C649.6521,126.855324,649.656921,126.631622,649.627747,126.411018L649.591309,125.941978C649.544739,125.597374,649.572388,125.246666,649.672302,124.913597C649.824036,124.492722,650.268616,124.253098,650.703613,124.357719C650.969421,124.437401,651.200562,124.604424,651.359619,124.831772z"/>
    <path transform="matrix(-1,0,0,1,0,0)" style="stroke:none;fill:#00e000;fill-rule:evenodd" d="M648.867493,123.519409C649.018372,123.711372,649.075256,123.960831,649.022522,124.199242L649.252441,123.969292L649.501038,124.217888L647.862061,125.856865L647.584106,125.578926L648.434509,124.728539C648.60791,124.589142,648.729126,124.395134,648.778381,124.178177C648.804199,123.915161,648.634644,123.672874,648.378723,123.606934C648.212891,123.612373,648.0578,123.689224,647.953064,123.817894L646.888062,124.882866L646.610291,124.605103L647.562561,123.652855C647.746216,123.514854,647.839844,123.286583,647.805969,123.059341C647.765259,122.821152,647.562378,122.645142,647.320862,122.638458C647.175049,122.678452,647.045593,122.762627,646.94989,122.879631L645.917358,123.912148L645.64093,123.635765L646.765991,122.510712C646.904358,122.348099,647.100708,122.24588,647.313232,122.225868C647.655151,122.251686,647.943542,122.48954,648.033997,122.820244C648.071045,122.963913,648.073975,123.114265,648.04248,123.259254L648.13501,123.223343C648.417053,123.157234,648.710571,123.275856,648.867493,123.519409z"/>
    <path transform="matrix(-1,0,0,1,0,0)" style="stroke:none;fill:#00e000;fill-rule:evenodd" d="M646.234619,120.886574C646.385437,121.078598,646.442322,121.327995,646.389648,121.566406L646.619629,121.336456L646.868042,121.584877L645.229065,123.223862L644.951294,122.946091L645.801697,122.095703C645.975037,121.956291,646.096252,121.762283,646.145569,121.545341C646.171265,121.282265,646.001709,121.039955,645.745728,120.97393C645.579895,120.979271,645.424805,121.056221,645.32019,121.185059L644.255249,122.250038L643.977478,121.972267L644.929688,121.02002C645.113159,120.881828,645.206726,120.653709,645.173096,120.426506C645.132446,120.188324,644.929565,120.012314,644.688049,120.005623C644.542175,120.045425,644.412537,120.129562,644.316833,120.24662L643.284363,121.279144L643.008118,121.00293L644.133179,119.877876C644.271484,119.715225,644.467834,119.613007,644.68042,119.593033C645.022278,119.618851,645.31073,119.856705,645.401184,120.187408C645.437988,120.331108,645.440918,120.481407,645.409607,120.626419L645.502014,120.59034C645.78418,120.524254,646.077698,120.642944,646.234619,120.886574z"/>
</svg>
